Coordinates
version=1
nRows=13
nColumns=22
inDegrees=yes

Units are S.I. units (second, meters, Newtons, ...)
If the header above contains a line with 'inDegrees', this indicates whether rotational values are in degrees (yes) or radians (no).

endheader
time	pelvis_tilt	pelvis_list	pelvis_rotation	pelvis_tx	pelvis_ty	pelvis_tz	hip_flexion_r	hip_adduction_r	hip_rotation_r	knee_angle_r	ankle_angle_r	subtalar_angle_r	hip_flexion_l	hip_adduction_l	hip_rotation_l	knee_angle_l	ankle_angle_l	subtalar_angle_l	lumbar_extension	lumbar_bending	lumbar_rotation
      2.17000000	      1.78625314	     -0.29727340	     -0.46284517	     -0.44574276	      0.90481774	      0.07833411	     24.11853909	      1.41435650	     -6.77289754	     -8.55829833	     -3.02333911	      4.77211632	    -13.48830521	      2.76492907	     -7.30834059	    -15.58191131	     15.87481430	     -4.64745929	     -8.79862628	     -2.46977590	     -7.54875589
      2.18000000	      1.89219096	     -0.11788139	      0.15646236	     -0.43440792	      0.90304419	      0.07859670	     23.86048349	      1.15530824	     -7.26615270	     -6.98818120	     -3.09433752	      5.35087355	    -14.17237693	      2.71951280	     -6.85775407	    -15.94476237	     15.82503729	     -4.61903850	     -8.82472213	     -2.69910634	     -7.94601582
      2.19000000	      1.99984680	      0.01372706	      0.77571701	     -0.42298430	      0.90136691	      0.07885302	     23.73185640	      0.90051615	     -7.76588190	     -6.18144052	     -3.02990853	      5.83868814	    -14.81343539	      2.59954443	     -6.34578653	    -16.39968537	     15.70443542	     -4.54977011	     -8.85776756	     -2.86054522	     -8.28880548
      2.20000000	      2.08815698	      0.10258839	      1.37951746	     -0.41144385	      0.89978203	      0.07909599	     23.75702632	      0.64776316	     -8.21462271	     -6.14655673	     -2.85500901	      6.10426843	    -15.39743993	      2.42086330	     -5.78095075	    -16.92541274	     15.50188413	     -4.44989931	     -8.86748229	     -2.95539865	     -8.58977432
      2.21000000	      2.20653390	      0.11441945	      1.92429493	     -0.39970243	      0.89836331	      0.07938498	     23.85006533	      0.45634509	     -8.52472137	     -6.79630276	     -2.61658466	      6.27055023	    -15.98628767	      2.15493052	     -5.28366232	    -17.51259762	     15.22096970	     -4.30014791	     -8.89770205	     -2.94341647	     -8.82048738
      2.22000000	      2.33496555	      0.06030126	      2.41684361	     -0.38773442	      0.89710562	      0.07972512	     23.99699134	      0.32662540	     -8.69076558	     -8.00377025	     -2.42917386	      6.27376786	    -16.55650520	      1.82222669	     -4.78330370	    -18.16376798	     14.85385603	     -4.06959591	     -8.92070122	     -2.84500702	     -8.94348610
      2.23000000	      2.45210982	     -0.05308818	      2.83449606	     -0.37549924	      0.89598003	      0.08014429	     24.19897881	      0.27739812	     -8.70027852	     -9.64574156	     -2.35357109	      6.02648200	    -17.08527508	      1.43916256	     -4.34159876	    -18.87876778	     14.38057902	     -3.73385015	     -8.90258361	     -2.66853950	     -8.95500205
      2.24000000	      2.54752110	     -0.24873893	      3.15064371	     -0.36290666	      0.89498831	      0.08074237	     24.42511096	      0.36766241	     -8.55609361	    -11.55188814	     -2.41831697	      5.55743790	    -17.56989279	      0.98696324	     -4.03723981	    -19.64628945	     13.75623487	     -3.36951203	     -8.81242544	     -2.40047974	     -8.86585570
      2.25000000	      2.63331513	     -0.52897932	      3.38334463	     -0.34997593	      0.89417407	      0.08151714	     24.61699761	      0.61008244	     -8.32382666	    -13.53624508	     -2.65203369	      5.00707816	    -17.99620519	      0.46201525	     -3.84973142	    -20.51085523	     12.96874205	     -3.04295579	     -8.66926176	     -2.04479810	     -8.64633768
      2.26000000	      2.70447498	     -0.89068552	      3.54869320	     -0.33671430	      0.89356803	      0.08245771	     24.75989797	      1.00173437	     -8.06971885	    -15.48025774	     -3.05106153	      4.38480381	    -18.35004009	     -0.13554610	     -3.77749255	    -21.47495091	     11.99478744	     -2.73423568	     -8.46660859	     -1.60589982	     -8.33938567
      2.27000000	      2.75299771	     -1.31979782	      3.65393131	     -0.32317046	      0.89318165	      0.08357289	     24.85282931	      1.52304208	     -7.84356544	    -17.30245687	     -3.55556066	      3.68829906	    -18.59622325	     -0.79294018	     -3.81085321	    -22.57403075	     10.80131046	     -2.42689913	     -8.20195331	     -1.10695769	     -7.95051102
      2.28000000	      2.77818748	     -1.79322704	      3.71532040	     -0.30939364	      0.89303959	      0.08483942	     24.89348518	      2.13677229	     -7.67716084	    -18.97332247	     -4.07743591	      2.87330455	    -18.71067716	     -1.49215932	     -3.92794582	    -23.83078632	      9.33908862	     -2.07853796	     -7.88236034	     -0.57484769	     -7.51338865
      2.29000000	      2.77590947	     -2.28772332	      3.74345665	     -0.29544734	      0.89315491	      0.08623309	     24.87814541	      2.80508630	     -7.56360312	    -20.47641727	     -4.52798484	      1.98600358	    -18.66736589	     -2.21008688	     -4.08098814	    -25.26076395	      7.56607793	     -1.68158278	     -7.51372025	     -0.03788892	     -7.04342661
